<svg xmlns="http://www.w3.org/2000/svg" width="445" height="437" viewBox="0 0 445 437" version="1.1"><path d="M 137.500 109.819 C 114.500 110.138, 114.500 110.138, 121.379 112.510 C 135.643 117.428, 152.412 129.889, 162.623 143.160 C 168.877 151.287, 175.473 164.866, 178.092 175 C 182.048 190.315, 180.824 212.636, 175.120 229.166 C 172.861 235.715, 166.841 247.994, 163.710 252.443 C 156.437 262.773, 142.440 275.210, 132.307 280.344 C 116.742 288.232, 104.377 290.880, 79.250 291.707 L 61 292.308 61 308.154 L 61 324 134.493 324 L 207.985 324 208.243 260.472 L 208.500 196.945 219.500 205.018 C 225.550 209.458, 232.075 214.169, 234 215.486 C 238.975 218.890, 260.166 234.286, 268.769 240.747 C 277.189 247.070, 274.382 247.753, 291.747 235.160 C 297.661 230.871, 309.250 222.478, 317.500 216.507 C 325.750 210.537, 335.200 203.654, 338.500 201.213 L 344.500 196.773 344.757 260.406 L 345.015 324.039 366.757 323.769 L 388.500 323.500 388.737 216.750 C 388.867 158.037, 388.596 110, 388.134 110 C 387.469 110, 345.489 141.420, 336.340 148.766 C 330.697 153.296, 282.430 189.765, 279.512 191.703 C 276.196 193.905, 276.196 193.905, 249.412 173.703 C 234.681 162.591, 218.774 150.571, 214.064 146.990 C 176.229 118.231, 164.622 109.794, 162.708 109.657 C 161.494 109.571, 150.150 109.644, 137.500 109.819 M 61 199 L 61 250 77.895 250 C 91.863 250, 95.890 249.660, 101.145 248.036 C 122.016 241.586, 134.043 223.752, 133.976 199.356 C 133.946 188.603, 132.921 183.855, 128.632 174.601 C 122.755 161.921, 112.192 152.735, 99.650 149.395 C 96.273 148.496, 88.733 148.020, 77.750 148.012 L 61 148 61 199" stroke="none" fill="#fbfafb" fill-rule="evenodd"/><path d="M 0 218.502 L 0 437.004 222.750 436.752 L 445.500 436.500 445.752 218.250 L 446.005 0 223.002 0 L 0 0 0 218.502 M 0.491 219 C 0.491 339.175, 0.608 388.337, 0.750 328.250 C 0.892 268.163, 0.892 169.838, 0.750 109.750 C 0.608 49.662, 0.491 98.825, 0.491 219 M 137.500 109.819 C 114.500 110.138, 114.500 110.138, 121.379 112.510 C 135.643 117.428, 152.412 129.889, 162.623 143.160 C 168.877 151.287, 175.473 164.866, 178.092 175 C 182.048 190.315, 180.824 212.636, 175.120 229.166 C 172.861 235.715, 166.841 247.994, 163.710 252.443 C 156.437 262.773, 142.440 275.210, 132.307 280.344 C 116.742 288.232, 104.377 290.880, 79.250 291.707 L 61 292.308 61 308.154 L 61 324 134.493 324 L 207.985 324 208.243 260.472 L 208.500 196.945 219.500 205.018 C 225.550 209.458, 232.075 214.169, 234 215.486 C 238.975 218.890, 260.166 234.286, 268.769 240.747 C 277.189 247.070, 274.382 247.753, 291.747 235.160 C 297.661 230.871, 309.250 222.478, 317.500 216.507 C 325.750 210.537, 335.200 203.654, 338.500 201.213 L 344.500 196.773 344.757 260.406 L 345.015 324.039 366.757 323.769 L 388.500 323.500 388.737 216.750 C 388.867 158.037, 388.596 110, 388.134 110 C 387.469 110, 345.489 141.420, 336.340 148.766 C 330.697 153.296, 282.430 189.765, 279.512 191.703 C 276.196 193.905, 276.196 193.905, 249.412 173.703 C 234.681 162.591, 218.774 150.571, 214.064 146.990 C 176.229 118.231, 164.622 109.794, 162.708 109.657 C 161.494 109.571, 150.150 109.644, 137.500 109.819 M 61 199 L 61 250 77.895 250 C 91.863 250, 95.890 249.660, 101.145 248.036 C 122.016 241.586, 134.043 223.752, 133.976 199.356 C 133.946 188.603, 132.921 183.855, 128.632 174.601 C 122.755 161.921, 112.192 152.735, 99.650 149.395 C 96.273 148.496, 88.733 148.020, 77.750 148.012 L 61 148 61 199" stroke="none" fill="#8c54fa" fill-rule="evenodd"/></svg>